<svg viewBox="0 0 20 20" fill="none" xmlns="http://www.w3.org/2000/svg">
<path d="M15.5005 6.26923C15.5005 7.13628 15.1317 7.96782 14.4752 8.58092C13.8187 9.19402 12.9284 9.53846 12 9.53846C11.0716 9.53846 10.1813 9.19402 9.5248 8.58092C8.86833 7.96782 8.49953 7.13628 8.49953 6.26923C8.49953 5.40217 8.86833 4.57063 9.5248 3.95753C10.1813 3.34444 11.0716 3 12 3C12.9284 3 13.8187 3.34444 14.4752 3.95753C15.1317 4.57063 15.5005 5.40217 15.5005 6.26923ZM5 18.5772C5.03 16.8618 5.78069 15.2262 7.09018 14.023C8.39967 12.8198 10.163 12.1455 12 12.1455C13.837 12.1455 15.6003 12.8198 16.9098 14.023C18.2193 15.2262 18.97 16.8618 19 18.5772C16.8039 19.5177 14.4159 20.003 12 20C9.50207 20 7.13108 19.4909 5 18.5772Z" stroke="#323438" stroke-linecap="round" stroke-linejoin="round"/>
</svg>
