<svg width="16" height="16" viewBox="0 0 16 16" fill="none" xmlns="http://www.w3.org/2000/svg">
<path d="M3.22165 14.0273L2.93212 14.4349H2.93212L3.22165 14.0273ZM2.78691 8.16613L2.30547 8.03115H2.30547L2.78691 8.16613ZM2.13925 12.6287L1.67154 12.8054H1.67154L2.13925 12.6287ZM14.2131 8.16613L13.7317 8.3011V8.3011L14.2131 8.16613ZM14.8608 12.6287L14.393 12.4519L14.8608 12.6287ZM13.7783 14.0273L14.0679 14.4349L13.7783 14.0273ZM7.81548 6.8C7.53933 6.8 7.31548 7.02386 7.31548 7.3C7.31548 7.57614 7.53933 7.8 7.81548 7.8V6.8ZM9.1839 7.8C9.46004 7.8 9.6839 7.57614 9.6839 7.3C9.6839 7.02386 9.46004 6.8 9.1839 6.8V7.8ZM5.92105 5.19999V4.05454H4.92105V5.19999H5.92105ZM11.0789 4.05454V5.19999H12.0789V4.05454H11.0789ZM8.5 1.5C9.92807 1.5 11.0789 2.64745 11.0789 4.05454H12.0789C12.0789 2.08768 10.4728 0.5 8.5 0.5V1.5ZM5.92105 4.05454C5.92105 2.64745 7.07193 1.5 8.5 1.5V0.5C6.52716 0.5 4.92105 2.08768 4.92105 4.05454H5.92105ZM7.2126 5.35003H9.78741V4.35003H7.2126V5.35003ZM2.30547 8.03115C1.97699 9.20282 1.71974 10.1181 1.59199 10.8547C1.46342 11.5959 1.4521 12.2248 1.67154 12.8054L2.60695 12.4519C2.47994 12.1158 2.46108 11.6955 2.57727 11.0256C2.69428 10.351 2.93409 9.49337 3.26835 8.3011L2.30547 8.03115ZM3.51118 13.6197C3.09791 13.3261 2.78367 12.9194 2.60695 12.4519L1.67154 12.8054C1.91917 13.4606 2.35834 14.0274 2.93212 14.4349L3.51118 13.6197ZM13.7317 8.3011C14.0659 9.49337 14.3057 10.351 14.4227 11.0256C14.5389 11.6955 14.5201 12.1158 14.393 12.4519L15.3285 12.8054C15.5479 12.2248 15.5366 11.5959 15.408 10.8547C15.2803 10.1181 15.023 9.20282 14.6945 8.03115L13.7317 8.3011ZM14.393 12.4519C14.2163 12.9194 13.9021 13.3261 13.4888 13.6197L14.0679 14.4349C14.6417 14.0274 15.0808 13.4606 15.3285 12.8054L14.393 12.4519ZM7.2126 4.35003C5.85715 4.35003 4.79768 4.52158 3.98189 5.12094C3.16262 5.72285 2.68241 6.68667 2.30547 8.03115L3.26835 8.3011C3.62722 7.02106 4.02951 6.32683 4.57396 5.92682C5.12189 5.52426 5.90737 5.35003 7.2126 5.35003V4.35003ZM14.6945 8.03115C14.334 6.74501 13.8836 5.78224 13.0782 5.16598C12.2725 4.54948 11.204 4.35003 9.78741 4.35003V5.35003C11.1416 5.35003 11.9327 5.54861 12.4705 5.96015C13.0087 6.37193 13.3857 7.0672 13.7317 8.3011L14.6945 8.03115ZM2.93212 14.4349C3.47405 14.8199 4.33417 15.0757 5.27518 15.241C6.23622 15.4099 7.35412 15.4962 8.46779 15.4999C9.58139 15.5036 10.705 15.4248 11.6772 15.2576C12.6306 15.0937 13.5056 14.8343 14.0679 14.4349L13.4888 13.6197C13.1178 13.8832 12.4298 14.1136 11.5077 14.2721C10.6045 14.4274 9.54023 14.5034 8.4711 14.4999C7.40204 14.4963 6.3423 14.4133 5.44826 14.2561C4.53419 14.0955 3.86177 13.8687 3.51118 13.6197L2.93212 14.4349ZM7.81548 7.8H9.1839V6.8H7.81548V7.8Z" fill="#323438"/>
</svg>